# xmcd
#
# Track frame offsets: 
#        150
#        10985
#        22560
#        38389
#        54609
#        75838
#        90933
#        103646
#        122666
#        134963
#        159062
#
# Disc length: 2416 seconds
#
# Revision: 0
# Processed by: cddbd v1.5.2PL0 Copyright (c) Steve Scherf et al.
# Submitted via: ExactAudioCopyFreeDBPlugin 1.0
#
DISCID=6c096e0b
DTITLE=Austin Young and No Difference - Yesterday is Gone
DYEAR=2011
DGENRE=Blues
TTITLE0=High Time We Played
TTITLE1=When it Comes to Lovin'
TTITLE2=Some Like it Hot
TTITLE3=Who Knows
TTITLE4=You Said
TTITLE5=It's Gonna Rain
TTITLE6=Love Once Lost
TTITLE7=Yesterday is Gone
TTITLE8=Mean Thing
TTITLE9=Blood on Beale
TTITLE10=Yesterday... "Love You, Bye"
EXTD=
EXTT0=
EXTT1=
EXTT2=
EXTT3=
EXTT4=
EXTT5=
EXTT6=
EXTT7=
EXTT8=
EXTT9=
EXTT10=
PLAYORDER=
